<svg width="579" height="88" viewBox="0 0 579 88" fill="none" xmlns="http://www.w3.org/2000/svg">
<g clip-path="url(#clip0_7852_10906)">
<path d="M84.0862 29.333H58.6647V58.6663H29.332V84.0884C29.332 86.2477 31.084 87.9997 33.2432 87.9997H84.0862C86.2454 87.9997 87.9974 86.2477 87.9974 84.0884V33.2443C87.9974 31.085 86.2454 29.333 84.0862 29.333Z" fill="#01E0C9"/>
<path d="M17.1959 66.896H3.91506C1.75499 66.896 0.00390625 68.6471 0.00390625 70.8072V84.0884C0.00390625 86.2485 1.75499 87.9996 3.91506 87.9996H17.1959C19.356 87.9996 21.1071 86.2485 21.1071 84.0884V70.8072C21.1071 68.6471 19.356 66.896 17.1959 66.896Z" fill="#01E0C9"/>
<path d="M54.7542 0H3.91116C1.75198 0 0 1.75201 0 3.91124V54.7554C0 56.9146 1.75198 58.6667 3.91116 58.6667H29.3327V29.3333H58.6653V3.91124C58.6653 1.75201 56.9154 0 54.7542 0Z" fill="#03AFF1"/>
<path d="M84.0904 0H70.8096C68.6495 0 66.8984 1.75112 66.8984 3.91124V17.1924C66.8984 19.3525 68.6495 21.1036 70.8096 21.1036H84.0904C86.2505 21.1036 88.0016 19.3525 88.0016 17.1924V3.91124C88.0016 1.75112 86.2505 0 84.0904 0Z" fill="#03AFF1"/>
</g>
<path d="M452.693 47.9597C449.783 34.7997 438.043 24.9697 424.013 24.9697C407.793 24.9697 394.643 38.1297 394.643 54.3597C394.643 70.5897 407.803 83.7297 424.013 83.7297C434.343 83.7297 443.413 78.4097 448.653 70.3597C448.653 70.3597 436.853 65.9097 436.843 65.8997C433.693 69.4197 429.113 71.6297 424.003 71.6297C416.613 71.6297 410.303 66.9897 407.853 60.4597L452.803 60.1697C453.203 58.2997 453.393 56.3597 453.393 54.3697C453.393 52.3797 453.183 50.2297 452.753 48.2697C452.733 48.1697 452.713 48.0797 452.693 47.9797V47.9597ZM407.863 48.2497C410.323 41.7197 416.623 37.0797 424.013 37.0797C431.403 37.0797 437.583 41.6197 440.093 48.0397L407.863 48.2497Z" fill="#000036"/>
<path d="M362.482 37.07C369.872 37.07 376.182 41.71 378.632 48.24H391.212C388.412 34.94 376.612 24.96 362.482 24.96C346.252 24.96 333.092 38.12 333.092 54.35C333.092 70.58 346.252 83.72 362.482 83.72C376.612 83.72 388.422 73.74 391.212 60.44H378.632C376.172 66.97 369.872 71.61 362.482 71.61C352.942 71.61 345.202 63.88 345.202 54.34C345.202 44.8 352.932 37.06 362.482 37.06V37.07Z" fill="#000036"/>
<path d="M211.712 24.9397C195.482 24.9397 182.322 38.0997 182.322 54.3297C182.322 70.5597 195.482 83.6997 211.712 83.6997C218.172 83.6997 224.142 81.6097 228.992 78.0797V83.8997H241.092V54.3197C241.092 38.0897 227.942 24.9297 211.722 24.9297L211.712 24.9397ZM211.712 71.5897C202.182 71.5897 194.432 63.8597 194.432 54.3197C194.432 44.7797 202.172 37.0397 211.712 37.0397C221.252 37.0397 228.982 44.7697 228.982 54.3197C228.982 63.8697 221.252 71.5897 211.712 71.5897Z" fill="#000036"/>
<path d="M300.152 24.9397C283.922 24.9397 270.762 38.0997 270.762 54.3297C270.762 70.5597 283.922 83.6997 300.152 83.6997C306.612 83.6997 312.582 81.6097 317.432 78.0797V83.8997H329.532V54.3197C329.532 38.0897 316.382 24.9297 300.162 24.9297L300.152 24.9397ZM300.152 71.5897C290.622 71.5897 282.872 63.8597 282.872 54.3197C282.872 44.7797 290.612 37.0397 300.152 37.0397C309.692 37.0397 317.422 44.7697 317.422 54.3197C317.422 63.8697 309.692 71.5897 300.152 71.5897Z" fill="#000036"/>
<path d="M166.662 30.7598C161.812 27.2198 155.852 25.1398 149.392 25.1398C133.162 25.1398 120.002 38.2898 120.002 54.5098C120.002 70.7298 133.162 83.8998 149.392 83.8998C165.622 83.8998 178.752 70.7398 178.762 54.5098V4.08984H166.652V30.7598H166.662ZM149.392 71.7998C139.862 71.7998 132.112 64.0698 132.112 54.5198C132.112 44.9698 139.852 37.2498 149.392 37.2498C158.932 37.2498 166.662 44.9798 166.662 54.5198C166.662 64.0598 158.932 71.7998 149.392 71.7998Z" fill="#000036"/>
<path d="M486.343 25.1398C479.883 25.1398 473.923 27.2198 469.073 30.7598V4.08984H456.963V54.5198C456.963 56.4398 457.143 58.3098 457.513 60.1198C460.113 73.6798 472.033 83.9098 486.343 83.9098C502.573 83.9098 515.733 70.7498 515.733 54.5198C515.733 38.2898 502.573 25.1498 486.343 25.1498V25.1398ZM486.343 71.7998C476.813 71.7998 469.073 64.0698 469.073 54.5198C469.073 44.9698 476.803 37.2498 486.343 37.2498C495.883 37.2498 503.623 44.9798 503.623 54.5198C503.623 64.0598 495.883 71.7998 486.343 71.7998Z" fill="#000036"/>
<path d="M548.681 25.1396C532.451 25.1396 519.291 38.2896 519.291 54.5096C519.291 70.7296 532.451 83.8997 548.681 83.8997C564.911 83.8997 578.051 70.7396 578.051 54.5096C578.051 38.2796 564.901 25.1396 548.681 25.1396ZM548.681 71.7997C539.151 71.7997 531.401 64.0696 531.401 54.5196C531.401 44.9696 539.141 37.2497 548.681 37.2497C558.221 37.2497 565.951 44.9796 565.951 54.5196C565.951 64.0596 558.221 71.7997 548.681 71.7997Z" fill="#000036"/>
<path d="M274.042 22.3098H261.012V4.08984H246.512V83.8998H261.012V34.4198H274.042V22.3098Z" fill="#000036"/>
<defs>
<clipPath id="clip0_7852_10906">
<rect width="88.002" height="88" fill="white"/>
</clipPath>
</defs>
</svg>
