<?xml version="1.0" encoding="utf-8"?>
<!-- Generator: Adobe Illustrator 25.2.0, SVG Export Plug-In . SVG Version: 6.00 Build 0)  -->
<svg version="1.1" id="Layer_1" xmlns="http://www.w3.org/2000/svg" xmlns:xlink="http://www.w3.org/1999/xlink" x="0px" y="0px"
	 viewBox="0 0 1366 768" style="enable-background:new 0 0 1366 768;" xml:space="preserve">
<style type="text/css">
	.st0{fill:url(#SVGID_1_);}
</style>
<linearGradient id="SVGID_1_" gradientUnits="userSpaceOnUse" x1="404.5821" y1="384" x2="961.418" y2="384">
	<stop  offset="0" style="stop-color:#03B0F2"/>
	<stop  offset="1" style="stop-color:#01E0C9"/>
</linearGradient>
<path class="st0" d="M685.79,323.72c0,0-0.39,0.28-1.12,0.73c0.35-0.24,0.68-0.51,1-0.79L685.79,323.72z M476.17,347.3l0.13,62.24
	c0,6.26-1.61,12.04-4.83,17.33s-7.61,9.53-13.17,12.7c-5.56,3.18-11.51,4.76-17.86,4.76c-6.44,0-12.42-1.61-17.93-4.83
	s-9.86-7.61-13.03-13.17c-3.26-5.38-4.9-11.33-4.9-17.86c0-6.44,1.61-12.42,4.83-17.93s7.61-9.9,13.17-13.17
	c5.47-3.18,11.42-4.76,17.86-4.76c7.59,0,14.56,2.25,20.91,6.75V347.3L476.17,347.3z M461.35,408.48c0-3.71-0.95-7.17-2.84-10.39
	s-4.43-5.8-7.61-7.74c-3.18-1.85-6.66-2.78-10.45-2.78c-3.71,0-7.17,0.95-10.39,2.84s-5.76,4.43-7.61,7.61
	c-1.94,3.09-2.91,6.57-2.91,10.45c0,3.71,0.95,7.17,2.84,10.39s4.43,5.76,7.61,7.61c3.09,1.94,6.57,2.91,10.45,2.91
	c3.71,0,7.17-0.95,10.39-2.84s5.8-4.43,7.74-7.61C460.42,415.76,461.35,412.27,461.35,408.48z M547.1,389.82
	c3.26,5.38,4.9,11.2,4.9,17.47l-0.13,37.05h-14.82v-6.88c-6.35,4.5-13.32,6.75-20.91,6.75c-6.44,0-12.42-1.61-17.93-4.83
	s-9.86-7.61-13.03-13.17c-3.26-5.38-4.9-11.34-4.9-17.86c0-6.44,1.61-12.42,4.83-17.93s7.61-9.9,13.17-13.17
	c5.47-3.18,11.42-4.76,17.86-4.76c6.35,0,12.28,1.57,17.8,4.7S543.83,384.53,547.1,389.82z M537.04,408.35
	c0-3.71-0.95-7.17-2.84-10.39s-4.43-5.8-7.61-7.74c-3.18-1.85-6.66-2.78-10.45-2.78c-3.71,0-7.17,0.95-10.39,2.84
	s-5.76,4.43-7.61,7.61c-1.94,3.09-2.91,6.57-2.91,10.45c0,3.71,0.95,7.17,2.84,10.39s4.43,5.76,7.61,7.61
	c3.09,1.94,6.57,2.91,10.45,2.91c3.71,0,7.17-0.95,10.39-2.85s5.8-4.43,7.74-7.61C536.12,415.63,537.04,412.14,537.04,408.35z
	 M591.83,369.05h-15.88V347.3h-17.33v97.05h17.33V384.4h15.88L591.83,369.05z M654.68,389.82c3.26,5.38,4.9,11.2,4.9,17.47
	l-0.13,37.05h-14.82v-6.88c-6.35,4.5-13.32,6.75-20.91,6.75c-6.44,0-12.42-1.61-17.93-4.83s-9.86-7.61-13.03-13.17
	c-3.26-5.38-4.9-11.34-4.9-17.86c0-6.44,1.61-12.42,4.83-17.93s7.61-9.9,13.17-13.17c5.47-3.18,11.42-4.76,17.86-4.76
	c6.35,0,12.28,1.57,17.8,4.7S651.42,384.53,654.68,389.82z M644.62,408.35c0-3.71-0.95-7.17-2.84-10.39s-4.43-5.8-7.61-7.74
	c-3.18-1.85-6.66-2.78-10.45-2.78c-3.71,0-7.17,0.95-10.39,2.84s-5.76,4.43-7.61,7.61c-1.94,3.09-2.91,6.57-2.91,10.45
	c0,3.71,0.95,7.17,2.84,10.39s4.43,5.76,7.61,7.61c3.09,1.94,6.57,2.91,10.45,2.91c3.71,0,7.17-0.95,10.39-2.85s5.8-4.43,7.74-7.61
	C643.7,415.63,644.62,412.14,644.62,408.35z M689.02,390.42c3.22-1.9,6.68-2.84,10.39-2.84c4.41,0,8.38,1.24,11.91,3.71
	s6.04,5.69,7.54,9.66l15.62,0.13c-1.15-5.29-3.4-10.14-6.75-14.56c-3.44-4.32-7.63-7.72-12.57-10.19
	c-4.94-2.47-10.19-3.71-15.75-3.71c-6.44,0-12.39,1.59-17.86,4.76c-5.56,3.26-9.95,7.65-13.17,13.17s-4.83,11.49-4.83,17.93
	c0,6.53,1.63,12.48,4.9,17.86c3.18,5.56,7.52,9.95,13.03,13.17s11.49,4.83,17.93,4.83c5.73,0,11.03-1.23,15.88-3.71
	c4.94-2.47,9.09-5.87,12.44-10.19s5.6-9.17,6.75-14.56h-15.48c-1.5,3.97-4.04,7.21-7.61,9.73c-3.57,2.51-7.56,3.77-11.98,3.77
	c-3.88,0-7.37-0.97-10.45-2.91c-3.18-1.85-5.71-4.39-7.61-7.61s-2.84-6.68-2.84-10.39c0-3.88,0.97-7.37,2.91-10.45
	C683.26,394.85,685.8,392.31,689.02,390.42z M803.81,388.23c4.15,6.26,6.22,13.01,6.22,20.25c0,1.94-0.13,3.84-0.4,5.69l-0.27-0.13
	v0.13l-54.78,1.46c1.06,2.91,2.65,5.45,4.76,7.61s4.59,3.77,7.41,4.83c2.29,0.88,4.76,1.32,7.41,1.32c3,0,5.89-0.6,8.67-1.79
	c2.78-1.19,5.14-2.89,7.08-5.09l14.42,5.56c-3.26,5.03-7.59,9-12.97,11.91c-5.38,2.91-11.12,4.37-17.2,4.37
	c-5.12,0-10.34-1.21-15.68-3.64s-9.9-6.46-13.7-12.11c-4.23-6.26-6.35-13.01-6.35-20.25c0-4.23,0.79-8.47,2.38-12.7
	c2.65-6.88,7.06-12.44,13.23-16.67c6.17-4.23,12.97-6.35,20.38-6.35c5.03,0,10.23,1.21,15.62,3.64
	C795.43,378.69,800.02,382.68,803.81,388.23z M793.76,400.94c-0.97-2.73-2.49-5.14-4.57-7.21s-4.52-3.64-7.34-4.7
	c-2.29-0.88-4.76-1.32-7.41-1.32c-4.32,0-8.29,1.19-11.91,3.57c-3.62,2.38-6.22,5.65-7.81,9.79l-0.26,0.79L793.76,400.94z
	 M880.96,390.01c3.18,5.56,4.76,11.56,4.76,18s-1.61,12.42-4.83,17.93s-7.56,9.86-13.03,13.03c-5.47,3.26-11.47,4.9-18,4.9
	c-6.35,0-12.28-1.57-17.8-4.7s-9.9-7.39-13.17-12.77c-3.26-5.2-4.9-10.98-4.9-17.33l0.13-61.77h14.82v31.74
	c6.17-4.59,13.14-6.88,20.91-6.88c6.35,0,12.31,1.61,17.86,4.83C873.29,380.2,877.7,384.54,880.96,390.01z M869.85,408.01
	c0-3.62-0.88-6.95-2.65-9.99c-1.76-3.04-4.19-5.49-7.28-7.34c-3.09-1.76-6.44-2.65-10.06-2.65s-6.95,0.88-9.99,2.65
	c-3.04,1.76-5.45,4.19-7.21,7.28s-2.65,6.44-2.65,10.06s0.88,6.95,2.65,9.99c1.76,3.04,4.19,5.45,7.28,7.21
	c3.09,1.76,6.4,2.65,9.92,2.65c3.62,0,6.95-0.88,9.99-2.65c3.04-1.76,5.49-4.19,7.34-7.28
	C868.96,414.85,869.85,411.54,869.85,408.01z M961.42,408.48c0,6.44-1.61,12.42-4.83,17.93s-7.56,9.86-13.03,13.03
	c-5.47,3.26-11.47,4.9-18,4.9c-6.44,0-12.42-1.61-17.93-4.83s-9.86-7.61-13.03-13.17c-3.26-5.38-4.9-11.33-4.9-17.86
	c0-6.44,1.61-12.42,4.83-17.93s7.61-9.9,13.17-13.17c5.47-3.18,11.42-4.76,17.86-4.76c6.35,0,12.31,1.61,17.86,4.83
	c5.56,3.22,9.97,7.56,13.23,13.03C959.83,396.04,961.42,402.04,961.42,408.48z M945.41,408.48c0-3.62-0.86-6.95-2.58-9.99
	c-1.72-3.04-4.12-5.45-7.21-7.21s-6.44-2.65-10.06-2.65s-6.95,0.86-9.99,2.58c-3.04,1.72-5.45,4.12-7.21,7.21s-2.65,6.44-2.65,10.06
	s0.88,6.95,2.65,9.99c1.76,3.04,4.19,5.45,7.28,7.21c3.09,1.76,6.4,2.65,9.92,2.65c3.62,0,6.95-0.88,9.99-2.65
	c3.04-1.76,5.45-4.19,7.21-7.28C944.52,415.32,945.41,412.01,945.41,408.48z"/>
</svg>
