<?xml version="1.0" encoding="utf-8"?>
<!-- Generator: Adobe Illustrator 25.2.0, SVG Export Plug-In . SVG Version: 6.00 Build 0)  -->
<svg version="1.1" id="Layer_1" xmlns="http://www.w3.org/2000/svg" xmlns:xlink="http://www.w3.org/1999/xlink" x="0px" y="0px"
	 viewBox="0 0 1366 768" style="enable-background:new 0 0 1366 768;" xml:space="preserve">
<style type="text/css">
	.st0{opacity:0.18;fill:url(#SVGID_1_);}
	.st1{fill:#231F20;}
</style>
<linearGradient id="SVGID_1_" gradientUnits="userSpaceOnUse" x1="682.4421" y1="384" x2="683.5579" y2="384">
	<stop  offset="0" style="stop-color:#01DFC8"/>
	<stop  offset="1" style="stop-color:#000000"/>
</linearGradient>
<path class="st0" d="M683.56,383.67c0,0-0.39,0.28-1.12,0.73c0.35-0.24,0.68-0.51,1-0.79L683.56,383.67z"/>
<g>
	<path class="st1" d="M471.47,415.05c-3.22,5.29-7.61,9.53-13.17,12.7c-5.56,3.18-11.51,4.76-17.86,4.76
		c-6.44,0-12.42-1.61-17.93-4.83s-9.86-7.61-13.03-13.17c-3.26-5.38-4.9-11.33-4.9-17.86c0-6.44,1.61-12.42,4.83-17.93
		s7.61-9.9,13.17-13.17c5.47-3.18,11.42-4.76,17.86-4.76c7.59,0,14.56,2.25,20.91,6.75v-32.07l14.82,0l0.13,62.24
		C476.3,403.98,474.69,409.76,471.47,415.05z M450.9,378.53c-3.18-1.85-6.66-2.78-10.45-2.78c-3.71,0-7.17,0.95-10.39,2.84
		s-5.76,4.43-7.61,7.61c-1.94,3.09-2.91,6.57-2.91,10.45c0,3.71,0.95,7.17,2.84,10.39s4.43,5.76,7.61,7.61
		c3.09,1.94,6.57,2.91,10.45,2.91c3.71,0,7.17-0.95,10.39-2.84s5.8-4.43,7.74-7.61c1.85-3.18,2.78-6.66,2.78-10.45
		c0-3.71-0.95-7.17-2.84-10.39S454.07,380.47,450.9,378.53z"/>
	<path class="st1" d="M516.13,432.39c-6.44,0-12.42-1.61-17.93-4.83s-9.86-7.61-13.03-13.17c-3.26-5.38-4.9-11.34-4.9-17.86
		c0-6.44,1.61-12.42,4.83-17.93s7.61-9.9,13.17-13.17c5.47-3.18,11.42-4.76,17.86-4.76c6.35,0,12.28,1.57,17.8,4.7
		s9.9,7.34,13.17,12.64c3.26,5.38,4.9,11.2,4.9,17.47l-0.13,37.05h-14.82v-6.88C530.69,430.14,523.72,432.39,516.13,432.39z
		 M526.59,378.4c-3.18-1.85-6.66-2.78-10.45-2.78c-3.71,0-7.17,0.95-10.39,2.84s-5.76,4.43-7.61,7.61
		c-1.94,3.09-2.91,6.57-2.91,10.45c0,3.71,0.95,7.17,2.84,10.39s4.43,5.76,7.61,7.61c3.09,1.94,6.57,2.91,10.45,2.91
		c3.71,0,7.17-0.95,10.39-2.85s5.8-4.43,7.74-7.61c1.85-3.18,2.78-6.66,2.78-10.45c0-3.71-0.95-7.17-2.84-10.39
		S529.76,380.34,526.59,378.4z"/>
	<path class="st1" d="M575.95,335.48v21.75h15.88l0,15.35h-15.88v59.95h-17.33v-97.05H575.95z"/>
	<path class="st1" d="M623.72,432.39c-6.44,0-12.42-1.61-17.93-4.83s-9.86-7.61-13.03-13.17c-3.26-5.38-4.9-11.34-4.9-17.86
		c0-6.44,1.61-12.42,4.83-17.93s7.61-9.9,13.17-13.17c5.47-3.18,11.42-4.76,17.86-4.76c6.35,0,12.28,1.57,17.8,4.7
		s9.9,7.34,13.17,12.64c3.26,5.38,4.9,11.2,4.9,17.47l-0.13,37.05h-14.82v-6.88C638.27,430.14,631.3,432.39,623.72,432.39z
		 M634.17,378.4c-3.18-1.85-6.66-2.78-10.45-2.78c-3.71,0-7.17,0.95-10.39,2.84s-5.76,4.43-7.61,7.61
		c-1.94,3.09-2.91,6.57-2.91,10.45c0,3.71,0.95,7.17,2.84,10.39s4.43,5.76,7.61,7.61c3.09,1.94,6.57,2.91,10.45,2.91
		c3.71,0,7.17-0.95,10.39-2.85s5.8-4.43,7.74-7.61c1.85-3.18,2.78-6.66,2.78-10.45c0-3.71-0.95-7.17-2.84-10.39
		S637.35,380.34,634.17,378.4z"/>
	<path class="st1" d="M681.54,365.57c5.47-3.18,11.42-4.76,17.86-4.76c5.56,0,10.81,1.23,15.75,3.71
		c4.94,2.47,9.13,5.87,12.57,10.19c3.35,4.41,5.6,9.26,6.75,14.56l-15.62-0.13c-1.5-3.97-4.01-7.19-7.54-9.66s-7.5-3.71-11.91-3.71
		c-3.71,0-7.17,0.95-10.39,2.84s-5.76,4.43-7.61,7.61c-1.94,3.09-2.91,6.57-2.91,10.45c0,3.71,0.95,7.17,2.84,10.39
		s4.43,5.76,7.61,7.61c3.09,1.94,6.57,2.91,10.45,2.91c4.41,0,8.4-1.26,11.98-3.77c3.57-2.51,6.11-5.76,7.61-9.73h15.48
		c-1.15,5.38-3.4,10.23-6.75,14.56s-7.5,7.72-12.44,10.19c-4.85,2.47-10.14,3.71-15.88,3.71c-6.44,0-12.42-1.61-17.93-4.83
		s-9.86-7.61-13.03-13.17c-3.26-5.38-4.9-11.33-4.9-17.86c0-6.44,1.61-12.42,4.83-17.93S675.99,368.83,681.54,365.57z"/>
	<path class="st1" d="M774.44,360.8c5.03,0,10.23,1.21,15.62,3.64c5.38,2.43,9.97,6.42,13.76,11.97c4.15,6.26,6.22,13.01,6.22,20.25
		c0,1.94-0.13,3.84-0.4,5.69l-0.27-0.13v0.13l-54.78,1.46c1.06,2.91,2.65,5.45,4.76,7.61s4.59,3.77,7.41,4.83
		c2.29,0.88,4.76,1.32,7.41,1.32c3,0,5.89-0.6,8.67-1.79c2.78-1.19,5.14-2.89,7.08-5.09l14.42,5.56c-3.26,5.03-7.59,9-12.97,11.91
		c-5.38,2.91-11.12,4.37-17.2,4.37c-5.12,0-10.34-1.21-15.68-3.64s-9.9-6.46-13.7-12.11c-4.23-6.26-6.35-13.01-6.35-20.25
		c0-4.23,0.79-8.47,2.38-12.7c2.65-6.88,7.06-12.44,13.23-16.67C760.24,362.92,767.03,360.8,774.44,360.8z M793.76,389.12
		c-0.97-2.73-2.49-5.14-4.57-7.21s-4.52-3.64-7.34-4.7c-2.29-0.88-4.76-1.32-7.41-1.32c-4.32,0-8.29,1.19-11.91,3.57
		c-3.62,2.38-6.22,5.65-7.81,9.79l-0.26,0.79L793.76,389.12z"/>
	<path class="st1" d="M828.96,335.48v31.74c6.17-4.59,13.14-6.88,20.91-6.88c6.35,0,12.31,1.61,17.86,4.83
		c5.56,3.22,9.97,7.56,13.23,13.03c3.18,5.56,4.76,11.56,4.76,18s-1.61,12.42-4.83,17.93s-7.56,9.86-13.03,13.03
		c-5.47,3.26-11.47,4.9-18,4.9c-6.35,0-12.28-1.57-17.8-4.7s-9.9-7.39-13.17-12.77c-3.26-5.2-4.9-10.98-4.9-17.33l0.13-61.77H828.96
		z M839.94,413.39c3.09,1.76,6.4,2.65,9.92,2.65c3.62,0,6.95-0.88,9.99-2.65c3.04-1.76,5.49-4.19,7.34-7.28
		c1.76-3.09,2.65-6.4,2.65-9.92c0-3.62-0.88-6.95-2.65-9.99c-1.76-3.04-4.19-5.49-7.28-7.34c-3.09-1.76-6.44-2.65-10.06-2.65
		s-6.95,0.88-9.99,2.65c-3.04,1.76-5.45,4.19-7.21,7.28s-2.65,6.44-2.65,10.06s0.88,6.95,2.65,9.99
		C834.43,409.23,836.85,411.63,839.94,413.39z"/>
	<path class="st1" d="M894.59,414.52c-3.26-5.38-4.9-11.33-4.9-17.86c0-6.44,1.61-12.42,4.83-17.93s7.61-9.9,13.17-13.17
		c5.47-3.18,11.42-4.76,17.86-4.76c6.35,0,12.31,1.61,17.86,4.83c5.56,3.22,9.97,7.56,13.23,13.03c3.18,5.56,4.76,11.56,4.76,18
		s-1.61,12.42-4.83,17.93s-7.56,9.86-13.03,13.03c-5.47,3.26-11.47,4.9-18,4.9c-6.44,0-12.42-1.61-17.93-4.83
		S897.77,420.08,894.59,414.52z M942.76,406.59c1.76-3.09,2.65-6.4,2.65-9.92c0-3.62-0.86-6.95-2.58-9.99
		c-1.72-3.04-4.12-5.45-7.21-7.21s-6.44-2.65-10.06-2.65s-6.95,0.86-9.99,2.58c-3.04,1.72-5.45,4.12-7.21,7.21
		s-2.65,6.44-2.65,10.06s0.88,6.95,2.65,9.99c1.76,3.04,4.19,5.45,7.28,7.21c3.09,1.76,6.4,2.65,9.92,2.65
		c3.62,0,6.95-0.88,9.99-2.65C938.59,412.1,941,409.67,942.76,406.59z"/>
</g>
</svg>
