<svg width="88" height="88" viewBox="0 0 88 88" fill="none" xmlns="http://www.w3.org/2000/svg">
<g clip-path="url(#clip0_7862_6762)">
<path d="M84.0862 29.333H58.6647V58.6663H29.332V84.0884C29.332 86.2477 31.084 87.9997 33.2432 87.9997H84.0862C86.2454 87.9997 87.9974 86.2477 87.9974 84.0884V33.2443C87.9974 31.085 86.2454 29.333 84.0862 29.333Z" fill="#01E0C9"/>
<path d="M17.1959 66.896H3.91506C1.75499 66.896 0.00390625 68.6471 0.00390625 70.8072V84.0884C0.00390625 86.2485 1.75499 87.9996 3.91506 87.9996H17.1959C19.356 87.9996 21.1071 86.2485 21.1071 84.0884V70.8072C21.1071 68.6471 19.356 66.896 17.1959 66.896Z" fill="#01E0C9"/>
<path d="M54.7542 0H3.91116C1.75198 0 0 1.75201 0 3.91124V54.7554C0 56.9146 1.75198 58.6667 3.91116 58.6667H29.3327V29.3333H58.6653V3.91124C58.6653 1.75201 56.9154 0 54.7542 0Z" fill="#03AFF1"/>
<path d="M84.0904 0H70.8096C68.6495 0 66.8984 1.75112 66.8984 3.91124V17.1924C66.8984 19.3525 68.6495 21.1036 70.8096 21.1036H84.0904C86.2505 21.1036 88.0016 19.3525 88.0016 17.1924V3.91124C88.0016 1.75112 86.2505 0 84.0904 0Z" fill="#03AFF1"/>
</g>
<defs>
<clipPath id="clip0_7862_6762">
<rect width="88.002" height="88" fill="white"/>
</clipPath>
</defs>
</svg>
